<svg width="32" height="32" viewBox="0 0 32 32" fill="none" xmlns="http://www.w3.org/2000/svg">
<path d="M16 32C24.8366 32 32 24.8366 32 16C32 7.16344 24.8366 0 16 0C7.16344 0 0 7.16344 0 16C0 24.8366 7.16344 32 16 32Z" fill="#0033CC"/>
<path d="M16 31.5C24.5604 31.5 31.5 24.5604 31.5 16C31.5 7.43959 24.5604 0.5 16 0.5C7.43959 0.5 0.5 7.43959 0.5 16C0.5 24.5604 7.43959 31.5 16 31.5Z" stroke="#0033CC"/>
<path d="M20.59 13H19V8C19 7.73478 18.8946 7.48043 18.7071 7.29289C18.5196 7.10536 18.2652 7 18 7H14C13.7348 7 13.4804 7.10536 13.2929 7.29289C13.1054 7.48043 13 7.73478 13 8V13H11.41C11.2114 12.9988 11.0169 13.0569 10.8514 13.1667C10.6859 13.2765 10.5568 13.4331 10.4806 13.6165C10.4045 13.8 10.3847 14.0019 10.4237 14.1967C10.4628 14.3914 10.559 14.5701 10.7 14.71L15.29 19.3C15.4774 19.4863 15.7308 19.5908 15.995 19.5908C16.2592 19.5908 16.5126 19.4863 16.7 19.3L21.29 14.71C21.4304 14.5707 21.5264 14.3929 21.5658 14.1991C21.6052 14.0053 21.5862 13.8042 21.5113 13.6211C21.4363 13.4381 21.3088 13.2814 21.1448 13.1708C20.9809 13.0603 20.7878 13.0008 20.59 13ZM9 23C9 23.2652 9.10536 23.5196 9.29289 23.7071C9.48043 23.8946 9.73478 24 10 24H22C22.2652 24 22.5196 23.8946 22.7071 23.7071C22.8946 23.5196 23 23.2652 23 23C23 22.7348 22.8946 22.4804 22.7071 22.2929C22.5196 22.1054 22.2652 22 22 22H10C9.73478 22 9.48043 22.1054 9.29289 22.2929C9.10536 22.4804 9 22.7348 9 23Z" fill="white"/>
</svg>
